<svg id="Слой_1" data-name="Слой 1" xmlns="http://www.w3.org/2000/svg" viewBox="0 0 592.66 579.81"><defs><style>.cls-1{fill:#fff;}.cls-2{fill:#0071bc;}.cls-3{fill:none;stroke-width:5px;}.cls-3,.cls-4{stroke:#000;stroke-miterlimit:10;}.cls-4{stroke-width:2px;}</style></defs><path class="cls-1" d="M1075,325" transform="translate(-577 -169.69)"/><path class="cls-2" d="M1072,325c1.18,2.3,2.23,5.19,1,7-2.4,3.54-10.72-1.23-16,3-3.53,2.83-4.4,8.62-3,13,2.16,6.77,9.32,8.82,10,9,6.8,1.83,11.82-2.43,14,0s-1.81,7.27,0,9c2.1,2,10.77-1.39,15-8s2.5-14.12,2-16" transform="translate(-577 -169.69)"/><path class="cls-2" d="M1103.5,354.5c-.68,3.26-2.08,6.69-5,9-5.45,4.3-11.53,1-28,2-13,.79-15.74,3.24-17,5-2.55,3.56-1.17,7.31-4,9-3.91,2.34-9.36-3.14-12-1-2.49,2,1.67,7.48-1,12-2.31,3.9-6.86,2.28-13,6-5.13,3.11-11.41,10-10,16,1.52,6.51,11.86,11.27,19,9,8.51-2.7,7.12-13.67,18-18a77,77,0,0,1,12-3c4.12-.83,6.22-1.24,8-1,5.37.72,11.23,4.94,12,10s-3.9,9.2-3,10c1.2,1.06,7.19-8.09,15-8s11.61,9.56,16,8c4.61-1.64,2.61-12.82,8-15,1.85-.75,3.2.38,8,2a67.7,67.7,0,0,0,13,3" transform="translate(-577 -169.69)"/><path class="cls-2" d="M1104.5,652.5c-9.13,10.41-17.79-16.68-21-22-4.17-6.9-13.65-22.58-9-38,2.8-9.29,7.85-9,8-16,.25-11.68-13.77-14.77-16-30-1.26-8.61,2.73-11,0-16-4.79-8.82-21-8.93-31-9-20.12-.14-23.32,5.72-34,2-9.41-3.28-18.64-11.91-21-22-1.69-7.22,1.54-9.2,0-20-1.67-11.73-6-13.22-5-19,1.43-8.1,10.72-9.49,27-20,21.61-13.94,19.37-20.61,31-23,13.33-2.74,27.93,3.62,38,8,10.4,4.53,16.16,9.17,24,7,6.45-1.79,8.4-6.55,14-6s7,5.71,13,9c4.24,2.33,11.22,3.95,23,0C1145.5,437.5,1175.5,571.5,1104.5,652.5Z" transform="translate(-577 -169.69)"/><path class="cls-2" d="M693.5,393.5c-6.29,11.36-7.28,17.69-6,22,1.9,6.41,6.62,7.16,16,18a101.17,101.17,0,0,1,13,19c7.82,15.07,3.56,18.11,10,26,7.39,9.07,19.18,12.63,27,15,8.14,2.46,7.7.88,13,3,12.79,5.12,12.83,13.34,26,22,11.41,7.5,16.32,4.59,19,10,4.6,9.29-10.1,17.45-10,35,.09,16.27,12.85,28.88,16,32,11,10.82,17.69,8.13,26,18,8,9.54,9,20.69,10,32,2.43,27.83-8.49,32.94-4,54,.87,4.1,5.32,24.94,22,32,6.2,2.63,16.79,4.5,20,0,6.69-9.37-24.92-37.72-18-47,2.49-3.34,7-.18,16-3,14-4.39,27.07-19.49,27-34,0-9.82-6.06-14.55-3-19,3.92-5.71,14.57,1,24-5,6.28-4,8.27-12.37,12-29,4.08-18.23,6.13-27.34,3-32-7.8-11.63-27.23-.1-46-14-10.51-7.78-6.86-13.2-20-23-7.4-5.52-8.12-3.47-30-14-15.67-7.54-19.15-10.44-25-9-9.45,2.32-10.87,12.49-17,12-7.22-.57-5.77-14.72-18-23-3.68-2.49-11.46-4.33-27-8-11.3-2.67-13.44-2.65-15-5-4.92-7.42,3.73-26.59,18-33,10.81-4.86,15.46,1.82,31-1,11.75-2.14,19.5-8.09,35-20,14.18-10.89,22.92-17.61,30-30,6-10.59,5.87-16.55,12-19,9.06-3.62,16.38,6.66,28,3,6.25-2,12.7-7.65,12-12-1.22-7.58-23.8-5.3-28-18-.56-1.7-1.78-5.39,0-8,3.11-4.56,11.48-.16,18-4,7.39-4.36,10.79-18.37,6-26-8.38-13.36-40.31-4.75-43-4-12.75,3.57-12.87,7.37-29,12-12.52,3.59-20.17,5.79-30,4-10.46-1.9-14.39-6.68-29-9a80.72,80.72,0,0,0-13-1S727,333,693.5,393.5Z" transform="translate(-577 -169.69)"/><path d="M774.82,312.52" transform="translate(-577 -169.69)"/><path d="M913.5,265.5a236.17,236.17,0,1,1-92.25,18.62A235.43,235.43,0,0,1,913.5,265.5m0-10c-136.41,0-247,110.59-247,247s110.59,247,247,247,247-110.59,247-247-110.59-247-247-247Z" transform="translate(-577 -169.69)"/><path d="M577,503a341,341,0,0,1,2.56-38.73l14.2,1.62A324.09,324.09,0,0,0,592,503Z" transform="translate(-577 -169.69)"/><path d="M586.54,426.11a334.11,334.11,0,0,1,11.34-37.05L610,393.42a320.8,320.8,0,0,0-10.23,35.79Z" transform="translate(-577 -169.69)"/><path d="M613.43,353.61a332,332,0,0,1,19.51-33.38l9.59,6.25A323.15,323.15,0,0,0,624.31,359Z" transform="translate(-577 -169.69)"/><path d="M656.13,289.35a337.54,337.54,0,0,1,26.55-28l6.93,7.24a327.75,327.75,0,0,0-25.22,27.61Z" transform="translate(-577 -169.69)"/><path d="M712.22,236.62a336.26,336.26,0,0,1,32.15-21.17l4.38,7.41A325.83,325.83,0,0,0,717.85,244Z" transform="translate(-577 -169.69)"/><path d="M778.72,198.14a331.14,331.14,0,0,1,36.07-13.21l2.14,6.86a324.25,324.25,0,0,0-35,13.56Z" transform="translate(-577 -169.69)"/><path d="M852.12,176a331.51,331.51,0,0,1,38.06-4.55l.41,5.75a326.47,326.47,0,0,0-37.27,5.16Z" transform="translate(-577 -169.69)"/><path d="M928.48,171.28a334.31,334.31,0,0,1,38,4.18l-.68,4.29a328.41,328.41,0,0,0-37.56-3.42Z" transform="translate(-577 -169.69)"/><path d="M1003.75,184a331.31,331.31,0,0,1,36,12.77l-1.12,2.71a326.09,326.09,0,0,0-35.84-12Z" transform="translate(-577 -169.69)"/><path d="M1073.94,213.59a330.51,330.51,0,0,1,32,20.64l-.87,1.22a332.24,332.24,0,0,0-32.21-19.93Z" transform="translate(-577 -169.69)"/><path d="M1135.35,258.38a330.69,330.69,0,0,1,26.41,27.33l-.06.06a331.58,331.58,0,0,0-26.88-26.8Z" transform="translate(-577 -169.69)"/><path class="cls-3" d="M928.39,832.19" transform="translate(-577 -169.69)"/><path class="cls-4" d="M1167.45,287.34c-6.73,6.65-15.36,1.62-15.36,1.62l-29.41-21.25-70.76,16.69a1,1,0,0,1-.93-.24l-8.34-7.43a1,1,0,0,1,.14-1.66l48.15-30.71-20.1-15.72-20.13,4a5.62,5.62,0,0,1-4.78-1.3l-2.4-2.14a3.08,3.08,0,0,1,.34-4.86l20.69-13.82" transform="translate(-577 -169.69)"/><path class="cls-4" d="M1167.45,287.34c3.47-10.46-1.51-13.38-3-15l-28.74-22.16-4.09-72.59a1,1,0,0,0-.49-.83l-9.49-5.88a1,1,0,0,0-1.55.6l-15.78,54.89-20.78-14.81-1.89-20.43a5.56,5.56,0,0,0-2.6-4.21l-2.73-1.7a3.08,3.08,0,0,0-4.56,1.7l-7.38,23.77" transform="translate(-577 -169.69)"/><ellipse cx="1165.03" cy="285.52" rx="3.81" ry="4.21" transform="translate(-437.66 737.74) rotate(-45)"/></svg>