<svg aria-hidden="true" style="position: absolute; width: 0; height: 0; overflow: hidden;" version="1.1" xmlns="http://www.w3.org/2000/svg" xmlns:xlink="http://www.w3.org/1999/xlink">
<defs>
<symbol id="icon-credit-card" viewBox="0 0 32 32">
<path d="M29 4h-26c-1.65 0-3 1.35-3 3v18c0 1.65 1.35 3 3 3h26c1.65 0 3-1.35 3-3v-18c0-1.65-1.35-3-3-3zM3 6h26c0.542 0 1 0.458 1 1v3h-28v-3c0-0.542 0.458-1 1-1zM29 26h-26c-0.542 0-1-0.458-1-1v-9h28v9c0 0.542-0.458 1-1 1zM4 20h2v4h-2zM8 20h2v4h-2zM12 20h2v4h-2z"></path>
</symbol>
<symbol id="icon-airplane" viewBox="0 0 32 32">
<path d="M24 19.999l-5.713-5.713 13.713-10.286-4-4-17.141 6.858-5.397-5.397c-1.556-1.556-3.728-1.928-4.828-0.828s-0.727 3.273 0.828 4.828l5.396 5.396-6.858 17.143 4 4 10.287-13.715 5.713 5.713v7.999h4l2-6 6-2v-4l-7.999 0z"></path>
</symbol>
<symbol id="icon-earth" viewBox="0 0 32 32">
<path d="M16 0c-8.837 0-16 7.163-16 16s7.163 16 16 16 16-7.163 16-16-7.163-16-16-16zM16 30c-1.967 0-3.84-0.407-5.538-1.139l7.286-8.197c0.163-0.183 0.253-0.419 0.253-0.664v-3c0-0.552-0.448-1-1-1-3.531 0-7.256-3.671-7.293-3.707-0.188-0.188-0.442-0.293-0.707-0.293h-4c-0.552 0-1 0.448-1 1v6c0 0.379 0.214 0.725 0.553 0.894l3.447 1.724v5.871c-3.627-2.53-6-6.732-6-11.489 0-2.147 0.484-4.181 1.348-6h3.652c0.265 0 0.52-0.105 0.707-0.293l4-4c0.188-0.188 0.293-0.442 0.293-0.707v-2.419c1.268-0.377 2.61-0.581 4-0.581 2.2 0 4.281 0.508 6.134 1.412-0.13 0.109-0.256 0.224-0.376 0.345-1.133 1.133-1.757 2.64-1.757 4.243s0.624 3.109 1.757 4.243c1.139 1.139 2.663 1.758 4.239 1.758 0.099 0 0.198-0.002 0.297-0.007 0.432 1.619 1.211 5.833-0.263 11.635-0.014 0.055-0.022 0.109-0.026 0.163-2.541 2.596-6.084 4.208-10.004 4.208z"></path>
</symbol>
</defs>
<symbol id="icon-burger-menu" viewBox="0 0 64 64">
<path d="M 9 13 A 1.0001 1.0001 0 0 0 8 14 L 8 22 A 1.0001 1.0001 0 0 0 9 23 L 54.021484 23 C 54.036854 23.560327 54.054462 24.053119 54.070312 25.085938 C 54.081203 25.795586 54.084435 26.476089 54.078125 27 L 9 27 A 1.0001 1.0001 0 0 0 8 28 L 8 36 A 1.0001 1.0001 0 0 0 9 37 L 54.015625 37 C 54.025975 37.550983 54.036415 38.005614 54.046875 39.009766 C 54.054475 39.737024 54.057784 40.455723 54.052734 41 L 9 41 A 1.0001 1.0001 0 0 0 8 42 L 8 50 A 1.0001 1.0001 0 0 0 9 51 L 55 51 A 1.0001 1.0001 0 1 0 55 49 L 10 49 L 10 43 L 55 43 C 55.000488 43 55.354988 42.935727 55.355469 42.935547 C 55.355949 42.935364 55.610855 42.793332 55.611328 42.792969 C 55.611801 42.792605 55.726159 42.692176 55.763672 42.648438 C 55.801182 42.604698 55.827919 42.565378 55.849609 42.53125 C 55.936339 42.394752 55.952313 42.325895 55.96875 42.271484 C 56.00162 42.162662 56.005079 42.11541 56.011719 42.066406 C 56.024989 41.968396 56.030156 41.890786 56.035156 41.794922 C 56.045156 41.603194 56.049734 41.360459 56.052734 41.072266 C 56.058734 40.495879 56.054775 39.743706 56.046875 38.990234 C 56.03121 37.483288 56 35.978516 56 35.978516 A 1.0001 1.0001 0 0 0 55 35 L 10 35 L 10 29 L 55 29 L 54.996094 28.998047 C 55.016014 28.999747 55.054537 29.003906 55.054688 29.003906 C 55.055372 29.003874 55.319639 28.955298 55.320312 28.955078 C 55.320988 28.954858 55.474538 28.892589 55.535156 28.855469 C 55.656393 28.781219 55.733024 28.702024 55.787109 28.636719 C 56.003451 28.375497 55.980375 28.288082 56 28.210938 C 56.03925 28.056649 56.042341 27.980665 56.050781 27.880859 C 56.067651 27.681249 56.073575 27.445765 56.078125 27.158203 C 56.087225 26.583079 56.082113 25.82147 56.070312 25.054688 C 56.046773 23.521128 56 21.970703 56 21.970703 A 1.0001 1.0001 0 0 0 55 21 L 10 21 L 10 15 L 55 15 A 1.0001 1.0001 0 1 0 55 13 L 9 13 z"></path>
</symbol>
</svg>
